<svg width="48" height="50" viewBox="0 0 48 50" fill="none" xmlns="http://www.w3.org/2000/svg">
<path fill-rule="evenodd" clip-rule="evenodd" d="M24 49.0114C37.2548 49.0114 48 38.261 48 24.9997C48 11.7384 37.2548 0.988037 24 0.988037C10.7452 0.988037 0 11.7384 0 24.9997C0 38.261 10.7452 49.0114 24 49.0114Z" fill="#4BCF51"/>
<mask id="mask0" mask-type="alpha" maskUnits="userSpaceOnUse" x="0" y="0" width="48" height="50">
<path fill-rule="evenodd" clip-rule="evenodd" d="M24 49.0114C37.2548 49.0114 48 38.261 48 24.9997C48 11.7384 37.2548 0.988037 24 0.988037C10.7452 0.988037 0 11.7384 0 24.9997C0 38.261 10.7452 49.0114 24 49.0114Z" fill="white"/>
</mask>
<g mask="url(#mask0)">
</g>
<path fill-rule="evenodd" clip-rule="evenodd" d="M12.2462 18.165L12.2639 18.1603C12.2217 18.2563 12.2278 18.2336 12.2462 18.165ZM12.418 18.1187C12.4005 18.053 12.3831 17.9875 12.366 17.9225C12.3173 18.0366 12.2847 18.1129 12.2639 18.1603C12.3154 18.1467 12.3668 18.1328 12.418 18.1187ZM12.418 18.1187C12.512 18.4714 12.6116 18.8337 12.7112 19.1961L12.7112 19.1961C12.8294 19.6261 12.9476 20.056 13.0564 20.4697C13.0665 20.6372 13.1689 20.6647 13.2988 20.5897C13.4154 20.5563 13.5345 20.5215 13.6559 20.486L13.6561 20.4859C14.1537 20.3405 14.6898 20.1838 15.2501 20.069C15.9472 19.9263 16.6094 20.3236 16.7795 20.9185C17.9501 24.7481 19.0182 28.5502 20.0863 32.3523C20.2839 32.8447 20.0442 33.3298 19.4496 33.5C18.9574 33.6977 18.3628 33.8678 17.8331 34.0005C17.6383 34.1131 17.5733 34.1506 17.6209 34.3831C17.726 35.0155 17.8037 35.7505 17.8814 36.4855C17.8914 36.653 17.9084 36.7948 17.9253 36.9367C17.9422 37.0786 17.9591 37.2204 17.9691 37.3879C19.753 36.8774 21.4719 36.4043 23.1907 35.9313L23.1908 35.9313C23.2347 36.0074 23.2435 36.0741 23.2508 36.1294C23.2559 36.1685 23.2603 36.2018 23.2758 36.2287C23.5511 37.4561 23.9287 38.711 24.3064 39.9658L24.3064 39.9658C24.3165 40.1333 24.354 40.1983 24.5863 40.1508C25.3109 39.9055 26.0354 39.6603 26.7974 39.4801C27.0021 39.4381 26.9974 39.3827 26.9865 39.2556C26.985 39.2384 26.9834 39.2199 26.9822 39.2C26.8784 38.8701 26.7909 38.5307 26.7033 38.1914L26.7033 38.1914L26.7033 38.1913C26.6157 37.852 26.5282 37.5127 26.4244 37.1827C26.3206 36.8528 26.233 36.5134 26.1455 36.1741L26.1455 36.1741C26.0579 35.8347 25.9703 35.4954 25.8665 35.1654C26.526 34.9577 27.1206 34.7876 27.7152 34.6174L27.7153 34.6173C27.836 34.6101 27.8554 34.6613 27.885 34.7392C27.8964 34.7693 27.9093 34.8035 27.9303 34.8398C28.2055 36.0672 28.5832 37.322 28.9609 38.5769C28.971 38.7444 29.0085 38.8094 29.2408 38.7618C29.5706 38.6579 29.926 38.5609 30.2814 38.4639C30.6368 38.367 30.9922 38.27 31.322 38.1661C31.7045 38.111 31.6866 38.0491 31.6099 37.7832L31.5992 37.746C31.4291 37.1511 31.2496 36.5399 31.0701 35.9287C30.8907 35.3176 30.7112 34.7064 30.5411 34.1114C30.4936 33.879 30.586 33.7389 30.8183 33.6914C32.2299 33.1359 33.6039 32.5155 34.8554 31.5326C35.8196 30.8023 36.4664 29.8221 36.6934 28.5645C36.8655 27.512 36.7402 26.5446 36.475 25.4847C36.2574 24.6572 35.8723 23.8399 35.3299 23.2001C34.5451 22.4403 33.613 22.0256 32.4961 21.891C32.3099 21.8685 32.1332 21.8623 31.9564 21.8562L31.9563 21.8562C31.7796 21.85 31.6028 21.8438 31.4167 21.8213C31.4928 21.7774 31.5337 21.724 31.5676 21.6798C31.5916 21.6485 31.6121 21.6218 31.639 21.6063C32.0461 21.1111 32.4157 20.551 32.5804 19.936C32.8 19.1159 32.6848 18.316 32.4672 17.4886C32.127 16.2987 31.4621 15.2964 30.315 14.6593C29.4853 14.2721 28.6008 14.0898 27.7262 14.0751L25.0203 14.3385C24.788 14.3861 24.6855 14.3586 24.638 14.1261C24.5804 13.7261 24.4578 13.3637 24.3353 13.0012L24.3352 13.0009C24.0801 12.1086 23.825 11.2163 23.5324 10.259C23.4999 10.2778 23.4743 10.2709 23.4487 10.264C23.423 10.2572 23.3974 10.2503 23.3649 10.2691C23.0087 10.3629 22.6714 10.4618 22.342 10.5584L22.342 10.5584C21.9067 10.6861 21.4852 10.8097 21.0514 10.9123C20.884 10.9224 20.8566 11.0249 20.9316 11.1548L21.1867 12.0472C21.4144 13.0422 21.6696 13.9346 21.9622 14.892C21.9531 14.9261 21.9481 14.9675 21.9431 15.0089C21.9331 15.0917 21.9232 15.1745 21.8799 15.1995C21.5826 15.2846 21.269 15.379 20.9555 15.4735L20.9554 15.4735C20.6419 15.568 20.3284 15.6625 20.0311 15.7476C20.021 15.5801 19.9835 15.5151 19.946 15.4501C19.7759 14.8552 19.5965 14.244 19.417 13.6328L19.417 13.6328C19.2375 13.0216 19.058 12.4104 18.8879 11.8155C18.8779 11.648 18.8404 11.583 18.608 11.6306C17.8835 11.8758 17.2239 12.0835 16.4619 12.2638C16.2296 12.3113 16.2021 12.4138 16.2497 12.6463C16.4385 13.2737 16.618 13.8849 16.7974 14.4961C16.9769 15.1073 17.1564 15.7185 17.3452 16.3459C17.3928 16.5784 17.3653 16.6809 17.133 16.7285C16.7195 16.8374 16.3154 16.9625 15.9113 17.0876L15.9113 17.0876C15.5072 17.2127 15.1031 17.3379 14.6896 17.4468C14.2761 17.5556 13.872 17.6808 13.4679 17.8059L13.4679 17.8059L13.4678 17.8059C13.1199 17.9136 12.7719 18.0214 12.418 18.1187ZM24.8205 32.3016C24.8855 32.2641 24.9879 32.2915 24.9879 32.2915C25.174 32.2382 25.3627 32.1856 25.5529 32.1326L25.5531 32.1325C26.5777 31.8467 27.6472 31.5485 28.6099 31.0654C29.4267 30.6802 30.1411 30.2675 30.7055 29.595C31.7145 28.4924 31.297 26.5683 29.9828 25.9416C29.3582 25.6095 28.6513 25.5848 27.9443 25.5601C26.4458 25.585 24.9757 26.0832 23.5658 26.5609L23.5658 26.5609L23.4379 26.6042C23.2262 26.6476 23.2386 26.7054 23.2784 26.8912C23.2823 26.9093 23.2864 26.9286 23.2906 26.9492C23.4131 27.3115 23.51 27.6669 23.6068 28.0224C23.7037 28.3778 23.8006 28.7333 23.9231 29.0956C24.0741 29.6993 24.2462 30.2909 24.4222 30.8961L24.4223 30.8962C24.5552 31.3531 24.6904 31.8179 24.8205 32.3016ZM27.0899 21.979C26.8676 22.194 26.5803 22.4465 26.4505 22.5215C25.6968 22.9569 24.9864 23.2305 24.2527 23.5132C23.9749 23.6202 23.6937 23.7285 23.4055 23.8474C23.2569 23.8899 23.1245 23.9231 22.9921 23.9563C22.8597 23.9894 22.7273 24.0226 22.5787 24.0652C22.4113 24.0752 22.3089 24.0478 22.2988 23.8803C21.9013 22.2911 21.4763 20.8043 21.0138 19.2526C20.9663 19.0202 20.9938 18.9177 21.2261 18.8701C21.4493 18.81 21.6684 18.7488 21.8852 18.6882C22.7603 18.4438 23.597 18.21 24.506 18.1015C25.2404 18.0237 26.0498 18.0758 26.7119 18.4729C27.9986 19.2021 28.1738 21.0063 27.0899 21.979Z" fill="white"/>
</svg>
