<svg width="48" height="50" viewBox="0 0 48 50" fill="none" xmlns="http://www.w3.org/2000/svg">
<path fill-rule="evenodd" clip-rule="evenodd" d="M24 0.980469C10.7508 0.980469 0 11.7371 0 24.9934C0 38.2498 10.7508 49.0063 24 49.0063C37.2492 49.0063 48 38.2498 48 24.9934C48 11.7371 37.2492 0.980469 24 0.980469ZM9.61523 26.8102L9.61524 26.8102L9.61525 26.8102C9.84237 26.2044 10.0695 25.5985 10.2966 24.917C10.4102 24.6141 10.5048 24.3112 10.5995 24.0082C10.6941 23.7053 10.7887 23.4024 10.9023 23.0995C10.978 22.948 11.0537 22.8723 11.2051 22.8723H21.1988H21.426C21.426 22.9102 21.407 22.967 21.3881 23.0238L21.3881 23.0238L21.3881 23.0238C21.3692 23.0806 21.3503 23.1374 21.3503 23.1752L20.2146 26.583C20.1389 26.8102 20.0632 26.8859 19.7603 26.8859H9.91807C9.84236 26.9617 9.69094 26.9617 9.61523 26.9617V26.8102ZM35.4325 29.1598C36.4167 26.054 37.401 23.024 38.3852 19.994V19.085C38.3852 19.0472 38.3663 19.0093 38.3473 18.9714C38.3284 18.9335 38.3095 18.8957 38.3095 18.8578C38.0824 17.7973 37.4767 17.0398 36.4167 16.661C36.0382 16.5853 35.5839 16.5095 35.2054 16.5095H16.1265C15.8994 16.5095 15.8237 16.5853 15.748 16.8125C15.5587 17.4185 15.3505 18.0245 15.1423 18.6305C14.9341 19.2365 14.7259 19.8425 14.5366 20.4485C14.5366 20.4799 14.5236 20.5113 14.5084 20.548C14.4869 20.6 14.4609 20.6628 14.4609 20.7515H32.1013C32.1013 20.8403 32.0753 20.903 32.0538 20.955C32.0386 20.9918 32.0256 21.0232 32.0256 21.0545C31.6092 22.3802 31.1738 23.7058 30.7385 25.0315C30.3032 26.3571 29.8678 27.6827 29.4514 29.0083C29.3757 29.2356 29.2243 29.3113 28.9972 29.3113H12.0382C11.8111 29.3113 11.6597 29.3113 11.5839 29.6143C11.2811 30.6748 10.9026 31.8111 10.524 32.8716C10.4483 33.0231 10.3726 33.2503 10.2969 33.4776H10.6754C12.7392 33.4776 14.8114 33.4692 16.8892 33.4608C21.0616 33.4439 25.2565 33.427 29.4514 33.4776C32.2527 33.5533 34.8268 31.0536 35.4325 29.1598Z" fill="#3A74BE"/>
</svg>
