<svg width="48" height="49" viewBox="0 0 48 49" fill="none" xmlns="http://www.w3.org/2000/svg">
<ellipse cx="24" cy="24.9945" rx="24" ry="23.9989" fill="#EEF2F5"/>
<path d="M24 7.50464C24 7.621 24 7.73736 24 7.85372C24 12.1591 24 16.5226 24 20.828C24 20.8862 24 21.0025 24 21.0607C24 21.1189 23.9426 21.1771 23.8852 21.1771C23.4834 21.3516 23.139 21.5262 22.7372 21.7007C22.2207 21.9334 21.6467 22.1661 21.1301 22.4571C20.4987 22.748 19.8673 23.0389 19.236 23.3298C18.7194 23.5625 18.2028 23.7952 17.6862 24.0279C17.0548 24.3188 16.4235 24.6097 15.7921 24.9006C15.2755 25.1334 14.7589 25.3661 14.1849 25.657C13.7832 25.8315 13.324 26.0642 12.9222 26.2388C12.8648 26.2388 12.8648 26.297 12.8074 26.2388C12.8074 26.2388 12.8074 26.2388 12.75 26.2388C12.9222 25.9479 13.0944 25.7152 13.2666 25.4243C14.1849 23.8534 15.1607 22.2825 16.0791 20.7116C17.0548 19.0244 18.088 17.3372 19.0638 15.6499C19.9821 14.079 20.9005 12.5082 21.8189 10.9955C22.5077 9.83186 23.1964 8.72643 23.8278 7.56282C23.9426 7.56282 23.9426 7.50464 24 7.50464C23.9426 7.50464 24 7.50464 24 7.50464Z" fill="#8A92B2"/>
<path d="M35.25 26.2164C34.3846 26.8079 33.4615 27.3402 32.5962 27.8726C29.7692 29.5879 27 31.2441 24.1731 32.9594C24.1154 32.9594 24.1154 33.0186 24.0577 33.0186C24 33.0186 24 32.9594 24 32.9594C24 32.9003 24 32.8411 24 32.782C24 28.9372 24 25.0925 24 21.2478C24 21.1887 24 21.1295 24 21.0704C24 21.0112 24.0577 21.0112 24.1154 21.0112C24.3462 21.1295 24.5769 21.2478 24.8654 21.3661C25.5577 21.721 26.3077 22.0168 27 22.3717C27.6346 22.6674 28.2115 22.9632 28.8462 23.1998C29.4808 23.4955 30.0577 23.7913 30.6923 24.087C31.2115 24.3236 31.7885 24.5602 32.3077 24.8559C32.8269 25.0925 33.4038 25.3291 33.9231 25.6249C34.3269 25.8023 34.7308 26.0389 35.1923 26.2164C35.1923 26.1572 35.1923 26.2164 35.25 26.2164Z" fill="#454A75"/>
<path d="M24 44.2727C24 44.2727 23.9423 44.2727 24 44.2727C23.9423 44.2727 23.9423 44.2727 23.8846 44.215C22.7308 42.5987 21.6346 41.0402 20.4808 39.424C19.3269 37.8078 18.1731 36.1915 17.0192 34.5753C15.9231 33.0168 14.7692 31.4583 13.6731 29.842C13.3846 29.438 13.0962 29.0339 12.8077 28.6298C12.8077 28.5721 12.75 28.5721 12.75 28.5144C12.8077 28.5144 12.8077 28.5721 12.8654 28.5721C14.4231 29.4957 16.0385 30.4193 17.5962 31.3428C19.3846 32.4395 21.2308 33.4786 23.0192 34.5753C23.3077 34.7485 23.6538 34.9216 23.9423 35.0948C24 35.0948 24 35.1525 24 35.2102C24 35.268 24 35.3257 24 35.3834C24 38.2695 24 41.098 24 43.9841C24 44.0418 24 44.1573 24 44.2727Z" fill="#8A92B2"/>
<path d="M12.75 26.2634C12.75 26.2634 12.825 26.2634 12.75 26.2634C12.825 26.2634 12.825 26.2634 12.75 26.2634C12.75 26.3384 12.75 26.3384 12.75 26.2634Z" fill="#808080"/>
<path d="M12.75 26.2971C12.75 26.2383 12.75 26.2383 12.75 26.2971C13.3269 26.0034 13.9038 25.7685 14.4808 25.4748C15.2308 25.1224 15.9808 24.77 16.7308 24.4177C17.3077 24.124 17.8846 23.8891 18.4615 23.5954C19.2692 23.1843 20.1346 22.8319 20.9423 22.4208C21.5192 22.1859 22.0962 21.8922 22.6731 21.6573C23.0769 21.4811 23.4808 21.3049 23.8846 21.07C23.9423 21.07 23.9423 21.0112 24 21.0112C24 21.0112 24 21.0112 24 21.07C24 21.1287 24 21.1287 24 21.1874C24 25.0637 24 28.94 24 32.8163C24 32.875 24 32.9337 24 32.9925C23.9423 33.0512 23.9423 32.9925 23.8846 32.9925C23.7115 32.875 23.5385 32.8163 23.4231 32.6988C19.9038 30.5845 16.3846 28.4701 12.8654 26.3558C12.8077 26.2971 12.75 26.2971 12.75 26.2971Z" fill="#62688F"/>
<path d="M35.25 28.5144C35.25 28.5721 35.25 28.5721 35.1917 28.6298C31.8109 33.3631 28.4301 38.0387 25.0492 42.7719C24.6995 43.2914 24.3497 43.7532 24 44.2727C24 44.2727 24 44.2727 24 44.215C24 44.1573 24 44.1573 24 44.0995C24 41.1557 24 38.2118 24 35.268C24 35.2102 24 35.1525 24 35.0948C24.7578 34.633 25.5155 34.1712 26.2733 33.7672C29.2461 32.0355 32.2189 30.3038 35.1917 28.5721C35.1917 28.5144 35.25 28.5144 35.25 28.5144Z" fill="#62688F"/>
<path d="M24 21.1217C24 21.0633 24 21.0048 24 21.0048C24 16.5632 24 12.0631 24 7.62152C24 7.56308 24 7.50464 24 7.50464C27.7113 13.6995 31.4227 19.8944 35.134 26.0893C35.192 26.1478 35.25 26.2062 35.25 26.2646C35.018 26.1478 34.7861 26.0309 34.4961 25.914C34.2062 25.7971 33.9162 25.6218 33.6263 25.5049C33.4523 25.4465 33.2784 25.3296 33.0464 25.2711C32.7564 25.1542 32.4085 24.9789 32.1186 24.862C31.9446 24.8036 31.7706 24.6867 31.5967 24.6283C31.1907 24.4529 30.7848 24.2776 30.3789 24.1023C30.1469 23.9854 29.9729 23.927 29.741 23.8101C29.451 23.6932 29.1611 23.5179 28.8711 23.401C28.6972 23.3425 28.5232 23.2256 28.3492 23.1672C27.9433 22.9919 27.5374 22.8165 27.1314 22.6412C26.8995 22.5243 26.7255 22.4659 26.4936 22.349C26.2036 22.2321 25.9137 22.0568 25.6237 21.9399C25.4497 21.823 25.2178 21.7646 25.0438 21.6477C24.6959 21.4724 24.3479 21.297 24 21.1217Z" fill="#62688F"/>
</svg>
