<svg width="48" height="50" viewBox="0 0 48 50" fill="none" xmlns="http://www.w3.org/2000/svg">
<path fill-rule="evenodd" clip-rule="evenodd" d="M24 0.984375C10.7513 0.984375 0 11.7414 0 24.9972C0 38.2529 10.7513 49.01 24 49.01C37.2487 49.01 48 38.2529 48 24.9972C48 11.7414 37.2487 0.984375 24 0.984375ZM33.6068 16.6097C33.8285 15.6794 34.7624 15.1049 35.6927 15.3266C36.623 15.5483 37.1974 16.4821 36.9758 17.4124C36.7541 18.3427 35.8203 18.9172 34.89 18.6956C34.4432 18.5893 34.0569 18.3097 33.8162 17.9185C33.5756 17.5273 33.5002 17.0564 33.6068 16.6097ZM34.3174 19.7507C33.8352 19.8962 33.4682 20.2895 33.3565 20.7807C33.1861 21.5294 33.6505 22.2757 34.3974 22.4537C35.1444 22.6316 35.8954 22.1749 36.0809 21.4298C36.2027 20.941 36.0525 20.4245 35.6877 20.0771C35.3229 19.7298 34.7996 19.6051 34.3174 19.7507ZM31.6503 27.9419C31.3369 27.8672 31.0872 27.631 30.9951 27.3222C30.9031 27.0135 30.9827 26.6791 31.2041 26.445C31.4255 26.2109 31.7549 26.1127 32.0683 26.1874C32.5528 26.3028 32.852 26.7891 32.7366 27.2736C32.6212 27.7581 32.1348 28.0573 31.6503 27.9419ZM31.6629 31.8633C31.9026 31.8431 32.1127 31.6953 32.2126 31.4765C32.3633 31.1463 32.2216 30.7562 31.8941 30.5998C31.5666 30.4433 31.1741 30.5782 31.012 30.903C30.9045 31.1182 30.9216 31.3745 31.0565 31.5736C31.1915 31.7726 31.4233 31.8834 31.6629 31.8633ZM30.5972 21.9908C29.7636 21.9908 29.0879 21.3151 29.0879 20.4815C29.0879 19.6479 29.7636 18.9722 30.5972 18.9722C31.4308 18.9722 32.1065 19.6479 32.1065 20.4815C32.1065 21.3151 31.4308 21.9908 30.5972 21.9908ZM33.3961 29.2916C33.1233 29.3137 32.8834 29.4805 32.7676 29.7284C32.5906 30.1072 32.7521 30.5579 33.1294 30.7381C33.5067 30.9183 33.9588 30.7607 34.1422 30.3849C34.2622 30.139 34.2411 29.8475 34.0868 29.6215C33.9326 29.3954 33.6689 29.2695 33.3961 29.2916ZM33.1128 25.6943C32.6633 25.5872 32.3051 25.2484 32.1731 24.8056C32.0411 24.3628 32.1553 23.8831 32.4729 23.5474C32.7904 23.2117 33.2629 23.0708 33.7124 23.1779C34.1619 23.285 34.5201 23.6238 34.6521 24.0666C34.7841 24.5095 34.6698 24.9891 34.3523 25.3248C34.0348 25.6606 33.5623 25.8014 33.1128 25.6943ZM29.5454 16.3453C29.5454 17.2477 30.277 17.9793 31.1795 17.9793C32.082 17.9793 32.8136 17.2477 32.8136 16.3453C32.8136 15.4428 32.082 14.7112 31.1795 14.7112C30.277 14.7112 29.5454 15.4428 29.5454 16.3453ZM30.722 9.52197C31.8381 9.52197 32.7429 10.4267 32.7429 11.5428C32.7429 12.6589 31.8381 13.5637 30.722 13.5637C29.6059 13.5637 28.7012 12.6589 28.7012 11.5428C28.7012 10.4267 29.6059 9.52197 30.722 9.52197ZM30.4689 23.3545C30.2777 23.0268 29.9247 22.8274 29.5453 22.8327C28.97 22.8408 28.5079 23.3095 28.5078 23.8848C28.5078 24.4601 28.9698 24.9288 29.5451 24.9371C29.9245 24.9425 30.2775 24.7432 30.4688 24.4154C30.6602 24.0877 30.6602 23.6823 30.4689 23.3545ZM27.9228 27.3125C27.4153 27.3125 27.0039 26.901 27.0039 26.3935C27.0039 25.886 27.4153 25.4746 27.9228 25.4746C28.4304 25.4746 28.8418 25.886 28.8418 26.3935C28.8418 26.901 28.4304 27.3125 27.9228 27.3125ZM28.2793 30.634C28.5295 30.5594 28.7208 30.357 28.7813 30.1031C28.8748 29.7105 28.6324 29.3165 28.2399 29.223C27.8473 29.1295 27.4533 29.3719 27.3597 29.7645C27.2993 30.0184 27.3788 30.2853 27.5685 30.4647C27.7582 30.644 28.0291 30.7086 28.2793 30.634ZM26.0204 27.3131C26.3296 27.3062 26.6183 27.4672 26.7749 27.7339C26.9315 28.0005 26.9315 28.3311 26.7749 28.5977C26.6183 28.8644 26.3296 29.0254 26.0204 29.0185C25.5569 29.0082 25.1865 28.6294 25.1865 28.1658C25.1865 27.7021 25.5569 27.3234 26.0204 27.3131ZM24.2381 18.8038C24.4462 18.9983 24.743 19.0653 25.0144 18.9791C25.4238 18.8491 25.6536 18.4151 25.531 18.0034C25.4083 17.5918 24.9785 17.3543 24.5647 17.4695C24.2903 17.5459 24.0786 17.7644 24.0109 18.0411C23.9432 18.3177 24.0301 18.6093 24.2381 18.8038ZM26.6316 22.7521C26.3675 22.9098 26.0389 22.913 25.7717 22.7605C25.5046 22.608 25.3403 22.3234 25.3418 22.0158C25.3433 21.7081 25.5105 21.4252 25.7791 21.2753C26.1861 21.0483 26.7 21.1901 26.933 21.5937C27.166 21.9973 27.0318 22.5132 26.6316 22.7521ZM27.2124 18.8236C27.0227 18.6442 26.7518 18.5797 26.5017 18.6542C26.1149 18.7695 25.8949 19.1764 26.0101 19.5631C26.1254 19.9498 26.5323 20.1699 26.919 20.0547C27.1692 19.9801 27.3606 19.7777 27.4211 19.5238C27.4816 19.2699 27.402 19.003 27.2124 18.8236ZM27.364 16.3159C27.5839 16.2986 27.7962 16.4 27.921 16.5818C28.0458 16.7636 28.0642 16.9982 27.9692 17.1972C27.8741 17.3962 27.6802 17.5293 27.4603 17.5465C27.1205 17.5731 26.8234 17.3192 26.7968 16.9793C26.7702 16.6395 27.0242 16.3424 27.364 16.3159ZM26.6891 15.6053C26.6605 15.2389 26.3403 14.9651 25.9739 14.9938C25.7369 15.0123 25.5278 15.1558 25.4253 15.3704C25.3229 15.5849 25.3426 15.8378 25.4772 16.0337C25.6117 16.2297 25.8406 16.3391 26.0776 16.3205C26.444 16.2919 26.7178 15.9717 26.6891 15.6053ZM24.0648 13.8681C24.4842 13.8352 24.8508 14.1484 24.8837 14.5678C24.9166 14.9871 24.6033 15.3537 24.184 15.3866C23.7647 15.4195 23.3981 15.1063 23.3652 14.6869C23.3323 14.2676 23.6455 13.901 24.0648 13.8681ZM24.1789 22.0473C24.6184 21.7935 24.7691 21.2315 24.5153 20.7919C24.2615 20.3524 23.6995 20.2018 23.26 20.4555C22.8204 20.7093 22.6698 21.2713 22.9236 21.7109C23.1773 22.1504 23.7394 22.301 24.1789 22.0473ZM17.6725 27.7074C17.8659 27.503 18.1536 27.4173 18.4273 27.4826C18.701 27.5478 18.9192 27.7542 18.9995 28.0238C19.0798 28.2935 19.0102 28.5856 18.8168 28.79C18.5179 29.106 18.0194 29.1198 17.7034 28.8209C17.3874 28.5219 17.3736 28.0234 17.6725 27.7074ZM18.4317 25.3085C18.1777 25.2479 17.9107 25.3275 17.7312 25.5171C17.4538 25.8103 17.4666 26.2729 17.7598 26.5504C18.053 26.8278 18.5156 26.815 18.793 26.5218C18.9725 26.3321 19.0371 26.0611 18.9626 25.8108C18.8881 25.5606 18.6857 25.3691 18.4317 25.3085ZM18.1959 30.1172C18.5382 29.7555 19.1089 29.7397 19.4706 30.0819C19.8324 30.4241 19.8482 30.9948 19.506 31.3566C19.2846 31.5906 18.9552 31.6888 18.6418 31.614C18.3284 31.5393 18.0787 31.3031 17.9868 30.9944C17.8948 30.6856 17.9745 30.3513 18.1959 30.1172ZM20.2088 22.0138C20.5349 22.2017 20.9365 22.2012 21.2621 22.0123C21.764 21.7212 21.9354 21.0787 21.6453 20.5763C21.3552 20.0738 20.7131 19.901 20.21 20.1901C19.8837 20.3776 19.6824 20.7252 19.6821 21.1016C19.6819 21.4779 19.8827 21.8258 20.2088 22.0138ZM21.5559 25.5529C21.406 25.8216 21.1231 25.9887 20.8155 25.9902C20.5078 25.9918 20.2232 25.8275 20.0707 25.5603C19.9182 25.2931 19.9214 24.9645 20.0791 24.7004C20.318 24.3003 20.8339 24.166 21.2375 24.399C21.6411 24.632 21.7829 25.1459 21.5559 25.5529ZM20.6493 32.1379C20.1998 32.0308 19.7273 32.1717 19.4098 32.5074C19.0924 32.8431 18.9781 33.3227 19.1101 33.7655C19.2421 34.2083 19.6003 34.5471 20.0498 34.6542C20.4992 34.7613 20.9717 34.6205 21.2892 34.2847C21.6067 33.949 21.721 33.4694 21.589 33.0266C21.457 32.5838 21.0988 32.245 20.6493 32.1379ZM20.941 28.4569C20.6567 28.2928 20.4815 27.9895 20.4814 27.6613C20.4814 27.333 20.6565 27.0297 20.9407 26.8655C21.225 26.7013 21.5752 26.7013 21.8595 26.8654C22.299 27.119 22.4496 27.6809 22.196 28.1204C21.9424 28.5599 21.3805 28.7105 20.941 28.4569ZM22.7633 29.2591C22.3845 29.2605 22.0357 29.4655 21.85 29.7957C21.5675 30.2982 21.7419 30.9344 22.2411 31.2226C22.7403 31.5109 23.3785 31.3438 23.6725 30.8479C23.8656 30.5221 23.8688 30.1175 23.6806 29.7887C23.4925 29.4599 23.1421 29.2576 22.7633 29.2591ZM23.1966 17.248C23.294 17.5583 23.2167 17.8969 22.9944 18.1343C22.7721 18.3717 22.4392 18.4709 22.1232 18.3941C21.8072 18.3172 21.5571 18.0761 21.4687 17.7631C21.3348 17.2888 21.6065 16.7948 22.0788 16.654C22.5511 16.5132 23.049 16.7777 23.1966 17.248ZM22.6991 13.974C22.652 13.3724 22.1261 12.9228 21.5245 12.9699C20.9229 13.017 20.4734 13.5429 20.5205 14.1445C20.5676 14.7462 21.0935 15.1957 21.6951 15.1486C22.2967 15.1015 22.7462 14.5756 22.6991 13.974ZM20.5205 17.1045C20.6598 17.5496 20.5488 18.0352 20.2298 18.3755C19.9109 18.7158 19.4335 18.858 18.9803 18.7478C18.5271 18.6375 18.1684 18.2919 18.0414 17.8431C17.8487 17.1624 18.2387 16.4532 18.9167 16.2512C19.5947 16.0492 20.3092 16.4294 20.5205 17.1045ZM19.5804 13.198C19.3377 12.8477 18.9253 12.655 18.5009 12.6936C17.8559 12.7522 17.3779 13.3185 17.4285 13.9642C17.4791 14.6099 18.0394 15.0949 18.6857 15.0523C19.1109 15.0243 19.4882 14.7698 19.6734 14.3859C19.8586 14.0021 19.8231 13.5483 19.5804 13.198ZM18.5713 21.1347C18.8409 21.6016 18.8409 22.1769 18.5713 22.6439C18.3017 23.1108 17.8035 23.3985 17.2643 23.3985C16.7252 23.3985 16.2269 23.1108 15.9573 22.6439C15.5406 21.9221 15.7879 20.9991 16.5097 20.5823C17.2315 20.1656 18.1545 20.4129 18.5713 21.1347ZM15.2485 26.3501C15.1536 26.5521 15.1752 26.7896 15.3049 26.9712C15.5005 27.2449 15.8793 27.3116 16.1566 27.1211C16.4339 26.9306 16.5075 26.5531 16.3221 26.2723C16.1991 26.0861 15.9851 25.9808 15.7625 25.9969C15.5399 26.013 15.3434 26.1481 15.2485 26.3501ZM15.7803 29.0087C15.5844 29.1432 15.3317 29.163 15.1173 29.0607C14.9029 28.9583 14.7594 28.7494 14.7408 28.5125C14.7222 28.2757 14.8314 28.0469 15.0273 27.9124C15.2231 27.7779 15.4758 27.758 15.6902 27.8604C15.9046 27.9627 16.0482 28.1717 16.0667 28.4085C16.0853 28.6454 15.9761 28.8742 15.7803 29.0087ZM16.7686 18.9803C17.1134 18.6132 17.2346 18.0893 17.086 17.6081C16.8593 16.8743 16.0839 16.4599 15.3479 16.6793C14.6119 16.8987 14.1899 17.6699 14.402 18.4081C14.541 18.8921 14.9293 19.2642 15.4188 19.3826C15.9084 19.5009 16.4237 19.3473 16.7686 18.9803ZM15.041 13.0158C15.5654 12.969 16.0746 13.2075 16.3742 13.6405C16.6738 14.0735 16.7177 14.634 16.4891 15.1083C16.2605 15.5826 15.7947 15.8975 15.2693 15.9329C14.4694 15.9867 13.7751 15.3866 13.7125 14.5873C13.65 13.7879 14.2424 13.0872 15.041 13.0158ZM13.1119 18.295C12.6595 17.869 12.0134 17.718 11.419 17.8995C10.5085 18.1774 9.99307 19.1381 10.265 20.0505C10.5368 20.9628 11.4941 21.4846 12.4083 21.2188C13.005 21.0453 13.463 20.5653 13.6085 19.9611C13.7539 19.3569 13.5644 18.7211 13.1119 18.295ZM10.4754 28C9.50881 28.5581 8.27305 28.2269 7.71495 27.2603C7.15686 26.2938 7.48807 25.058 8.45463 24.4999C9.4212 23.9418 10.657 24.273 11.2151 25.2396C11.7729 26.2061 11.4417 27.4419 10.4754 28ZM11.9779 24.27C12.4291 25.0514 13.4282 25.3193 14.2097 24.8682C14.585 24.6515 14.8589 24.2946 14.9711 23.876C15.0833 23.4574 15.0245 23.0113 14.8078 22.636C14.3565 21.8547 13.3573 21.587 12.5759 22.0382C11.7945 22.4894 11.5268 23.4886 11.9779 24.27ZM14.8356 31.0542C14.6763 30.83 14.6502 30.5373 14.7674 30.2885C14.8846 30.0397 15.1268 29.8734 15.4011 29.8534C15.6754 29.8334 15.9392 29.9628 16.0912 30.192C16.3212 30.5385 16.2306 31.0055 15.8877 31.2409C15.5448 31.4764 15.0765 31.3932 14.8356 31.0542ZM15.2366 32.6093C15.0685 32.9641 15.1036 33.3819 15.3287 33.7036C15.6725 34.1951 16.3482 34.3175 16.8426 33.978C17.337 33.6385 17.4654 32.9639 17.1302 32.4666C16.9107 32.141 16.5335 31.9581 16.1419 31.9876C15.7504 32.0171 15.4048 32.2545 15.2366 32.6093ZM16.6013 36.4619C16.3621 36.1134 16.3269 35.6638 16.5091 35.2824C16.6912 34.901 17.063 34.6457 17.4844 34.6128C17.9058 34.5798 18.3128 34.7742 18.552 35.1226C18.9218 35.6613 18.7849 36.3978 18.2463 36.7676C17.7076 37.1374 16.9711 37.0006 16.6013 36.4619ZM19.1861 39.79C19.6578 40.0151 20.2137 39.9716 20.6446 39.6757C21.3106 39.2183 21.4797 38.3077 21.0224 37.6416C20.565 36.9756 19.6543 36.8065 18.9883 37.2639C18.5574 37.5597 18.3172 38.063 18.358 38.584C18.3988 39.1051 18.7145 39.5648 19.1861 39.79ZM23.5982 37.1557C23.2553 37.5231 22.7419 37.6787 22.2527 37.5633C21.7636 37.4479 21.3738 37.0792 21.2313 36.5973C21.0888 36.1154 21.2155 35.594 21.5633 35.2312C22.0959 34.6755 22.9772 34.6539 23.5365 35.1828C24.0958 35.7117 24.1233 36.5928 23.5982 37.1557ZM25.9354 31.6279C25.2136 31.2112 24.2906 31.4585 23.8738 32.1803C23.4571 32.9021 23.7044 33.8251 24.4262 34.2419C25.148 34.6586 26.0711 34.4113 26.4878 33.6895C26.9046 32.9677 26.6573 32.0447 25.9354 31.6279ZM27.0962 39.927C26.6727 40.3835 26.0367 40.5775 25.4305 40.435C24.8243 40.2926 24.3412 39.8357 24.1653 39.2383C23.9894 38.6409 24.1478 37.9951 24.58 37.5469C25.2395 36.8631 26.3266 36.8382 27.0167 37.491C27.7068 38.1437 27.7423 39.2306 27.0962 39.927ZM28.4705 37.1409C29.0543 37.1409 29.5937 36.8294 29.8856 36.3238C30.3367 35.5423 30.0689 34.543 29.2874 34.0918C28.5058 33.6406 27.5065 33.9084 27.0553 34.69C26.7634 35.1956 26.7635 35.8184 27.0554 36.324C27.3473 36.8295 27.8867 37.1409 28.4705 37.1409ZM30.3737 32.0198C30.2268 32.3274 29.8583 32.4577 29.5507 32.3109C29.2431 32.164 29.1127 31.7955 29.2596 31.4879C29.4065 31.1803 29.7749 31.0499 30.0825 31.1968C30.3902 31.3437 30.5205 31.7121 30.3737 32.0198ZM29.8259 29.6001C30.2491 29.701 30.6738 29.4397 30.7746 29.0165C30.8754 28.5934 30.6141 28.1687 30.191 28.0679C29.7679 27.9671 29.3431 28.2283 29.2423 28.6515C29.1415 29.0746 29.4028 29.4993 29.8259 29.6001ZM34.6051 38.5227C34.047 39.4895 32.8112 39.8206 31.8447 39.2626C30.8781 38.7044 30.5471 37.4683 31.105 36.5014C31.6631 35.5346 32.8988 35.2035 33.8654 35.7616C34.832 36.3198 35.163 37.5559 34.6051 38.5227ZM35.2887 29.2508C35.6778 29.2203 36.0211 28.9846 36.1893 28.6324C36.3575 28.2801 36.325 27.8649 36.1041 27.5431C35.8831 27.2213 35.5073 27.0419 35.1182 27.0723C34.729 27.1028 34.3857 27.3385 34.2175 27.6908C34.0493 28.043 34.0818 28.4582 34.3027 28.78C34.5237 29.1018 34.8995 29.2813 35.2887 29.2508ZM37.9406 26.1509C37.6591 26.7406 36.9528 26.9904 36.3632 26.7089C35.7735 26.4274 35.5236 25.7212 35.8052 25.1315C35.9873 24.75 36.3591 24.4947 36.7805 24.4617C37.2019 24.4286 37.6089 24.6229 37.8482 24.9714C38.0875 25.3198 38.1227 25.7695 37.9406 26.1509ZM38.1854 23.8198C38.7065 23.779 39.1662 23.4634 39.3914 22.9917C39.7395 22.2627 39.4307 21.3894 38.7017 21.0413C37.9726 20.6931 37.0993 21.0019 36.7512 21.731C36.526 22.2026 36.5695 22.7586 36.8653 23.1894C37.1612 23.6203 37.6644 23.8606 38.1854 23.8198Z" fill="#313131"/>
</svg>
