<svg width="43" height="34" viewBox="0 0 43 34" fill="none" xmlns="http://www.w3.org/2000/svg">
<path d="M10.154 31.7226C10.154 31.1168 10.5586 30.6124 11.2284 30.6124C11.8667 30.6124 12.3027 31.0926 12.3027 31.7248C12.3027 32.3635 11.8667 32.8481 11.2284 32.8481C10.5609 32.8481 10.154 32.3415 10.154 31.7468V31.7226ZM13.0309 30.0067H12.2578V30.4472C12.0105 30.1389 11.6397 29.9406 11.134 29.9406C10.1406 29.9406 9.3584 30.7115 9.3584 31.7688C9.3584 32.8481 10.1406 33.597 11.134 33.597C11.6397 33.597 12.0105 33.3988 12.2578 33.0904V33.5089H13.0309V30.0287V30.0067ZM39.1366 31.7468C39.1366 31.1521 39.5411 30.6455 40.2154 30.6455C40.8537 30.6455 41.2808 31.13 41.2808 31.7688C41.2808 32.4076 40.8537 32.8922 40.2019 32.8922C39.5277 32.8922 39.1231 32.4076 39.1231 31.7908L39.1366 31.7468ZM42 28.6631H41.2133V30.4913C40.9661 30.1829 40.584 29.9847 40.0896 29.9847C39.0781 29.9847 38.314 30.7556 38.314 31.8129C38.314 32.8922 39.0781 33.6411 40.0896 33.6411C40.584 33.6411 40.9661 33.4648 41.2133 33.1345V33.553H41.9775V28.6631H42ZM22.6034 30.6675C23.0979 30.6675 23.4125 30.9759 23.5024 31.5045H21.6594C21.7268 30.9979 22.0415 30.6675 22.6034 30.6675ZM22.6034 29.9847C21.547 29.9847 20.8278 30.7336 20.8278 31.8129C20.8278 32.9296 21.5695 33.6411 22.6483 33.6411C23.1653 33.6411 23.6598 33.5177 24.0868 33.1565L23.7047 32.6014C23.39 32.8349 23.008 32.9671 22.6708 32.9671C22.1763 32.9671 21.7044 32.7468 21.592 32.108H24.2441C24.2441 32.0133 24.2666 31.9186 24.2666 31.8151C24.2441 30.7248 23.5698 29.9869 22.5809 29.9869L22.6034 29.9847ZM31.9084 31.8151C31.9084 31.1983 32.3129 30.6983 32.9872 30.6983C33.6165 30.6983 34.066 31.1829 34.066 31.8107C34.066 32.4494 33.6165 32.934 32.9872 32.934C32.3129 32.934 31.9084 32.4274 31.9084 31.8107V31.8151ZM34.7853 31.8107V30.0706H34.0211V30.4891C33.7739 30.1807 33.3918 29.9825 32.8973 29.9825C31.8859 29.9825 31.1217 30.7534 31.1217 31.8107C31.1217 32.8679 31.8859 33.6389 32.8973 33.6389C33.3918 33.6389 33.7739 33.4406 34.0211 33.1323V33.5507H34.81V31.8107H34.7853ZM27.5481 31.8107C27.5481 32.8679 28.2898 33.6389 29.436 33.6389C29.9754 33.6389 30.3238 33.5287 30.7172 33.2204L30.3418 32.6036C30.0271 32.8239 29.735 32.9296 29.3978 32.9296C28.791 32.9252 28.319 32.4847 28.319 31.8063C28.319 31.1278 28.7685 30.7049 29.3753 30.7005C29.7125 30.7005 30.0114 30.8107 30.3058 31.0089L30.6655 30.4142C30.2834 30.1058 29.9238 29.9957 29.3911 29.9957C28.2448 29.9957 27.4896 30.7666 27.4896 31.8239L27.5481 31.8107ZM37.4576 29.9957C37.0081 29.9957 36.7159 30.1939 36.5137 30.5023V30.0794H35.7495V33.5596H36.5271V31.6212C36.5271 31.0485 36.7969 30.7292 37.2913 30.7292C37.4487 30.7292 37.6127 30.7512 37.7858 30.8173L38.015 30.1014C37.8397 30.0353 37.6195 29.9979 37.4756 29.9979L37.4576 29.9957ZM16.7619 30.3723C16.3866 30.13 15.8719 29.9979 15.3077 29.9979C14.4087 29.9979 13.8243 30.4208 13.8243 31.1212C13.8243 31.6807 14.2514 32.0243 15.0605 32.1433L15.4291 32.1873C15.8562 32.2534 16.0494 32.3635 16.0494 32.5552C16.0494 32.8305 15.7685 32.9847 15.2403 32.9847C14.7054 32.9847 14.3188 32.8239 14.0603 32.6256L13.7007 33.2049C14.1278 33.5133 14.6582 33.6565 15.2403 33.6565C16.2607 33.6565 16.8586 33.1719 16.8586 32.5111C16.8586 31.9032 16.3866 31.586 15.6224 31.4715L15.2516 31.4274C14.9144 31.3834 14.6582 31.3173 14.6582 31.075C14.6582 30.8327 14.9054 30.6785 15.3325 30.6785C15.782 30.6785 16.227 30.8327 16.4428 30.9648L16.7799 30.3481L16.7619 30.3723ZM26.7187 29.9979C26.2692 29.9979 25.986 30.2005 25.786 30.5111V30.0926H25.0083V33.5728H25.8197V31.6212C25.8197 31.0485 26.0849 30.7182 26.5839 30.7182C26.7412 30.7182 26.9097 30.7402 27.0693 30.8063L27.3121 30.1014C27.1413 30.0353 26.9165 30.0133 26.7569 30.0133L26.7187 29.9979ZM20.167 30.1014H18.8971V29.0441H18.1105V30.097H17.3913V30.7886H18.1105V32.3745C18.1105 33.1895 18.4319 33.6631 19.3466 33.6631C19.6838 33.6631 20.0704 33.5596 20.3131 33.3988L20.0951 32.7424C19.8524 32.8745 19.6006 32.9406 19.3983 32.9406C19.0073 32.9406 18.8814 32.6983 18.8814 32.3525V30.7886H20.14V30.0838L20.167 30.1014ZM8.63693 33.5596V31.3789C8.63693 30.553 8.09751 29.9913 7.23219 29.9913C6.77593 29.9825 6.31068 30.1234 5.98029 30.608C5.73306 30.227 5.35097 29.9913 4.81155 29.9913C4.42946 29.9913 4.04737 30.1014 3.76418 30.5089V30.0794H3V33.5596H3.78665V31.6323C3.78665 31.0199 4.12379 30.7071 4.64748 30.7071C5.15768 30.7071 5.42064 31.0287 5.42064 31.619V33.5574H6.19606V31.619C6.19606 31.0023 6.55567 30.6939 7.05014 30.6939C7.56708 30.6939 7.83679 31.0177 7.83679 31.608V33.5463H8.60097L8.63693 33.5596Z" fill="#231F20"/>
<path d="M27 23.6602H16V3.6499H27V23.6602Z" fill="#FF5F00"/>
<path d="M16.8104 14.1571C16.8104 9.84669 18.8415 6.01273 22 3.53541C19.6722 1.72732 16.751 0.647461 13.6017 0.647461C6.09336 0.647461 0 6.69558 0 14.1571C0 21.614 6.07054 27.6621 13.5788 27.6621C16.7282 27.6621 19.6494 26.5868 21.9772 24.7742C18.805 22.3014 16.7739 18.4629 16.7739 14.1571" fill="#EB001B"/>
<path d="M43 14.1571C43 21.614 36.9183 27.6621 29.4177 27.6621C26.2468 27.6621 23.3268 26.5868 21.0228 24.7742C24.1709 22.3014 26.2012 18.4629 26.2012 14.1571C26.2012 9.84669 24.1709 6.01273 21 3.53541C23.304 1.72732 26.224 0.647461 29.3949 0.647461C36.8772 0.647461 42.9681 6.69558 42.9681 14.1571" fill="#F79E1B"/>
</svg>
