<svg width="73" height="21" viewBox="0 0 73 21" fill="none" xmlns="http://www.w3.org/2000/svg">
<path fill-rule="evenodd" clip-rule="evenodd" d="M19.5111 0.651856V0.661609C19.5011 0.661609 16.6824 0.651857 15.9309 3.28235C15.2419 5.69343 13.2995 12.3538 13.2446 12.5366H12.7078C12.7078 12.5366 10.7205 5.72999 10.0239 3.27016C9.27244 0.639667 6.44377 0.651856 6.44377 0.651856H0V20.6621H6.44377V8.77737H6.98055L10.7405 20.6621H15.2144L18.9718 8.78712H19.5111V20.6621H25.9549V0.651856H19.5111ZM43.0467 0.651856C43.0467 0.651856 41.1593 0.817634 40.273 2.74845L35.7091 12.5366H35.1724V0.651856H28.7286V20.6621H34.8129C34.8129 20.6621 36.7927 20.489 37.6765 18.568L42.1529 8.77737H42.6897V20.6621H49.1335V0.651856H43.0467ZM51.9971 9.7379V20.6621H58.4409V14.2846H65.4214C68.4648 14.2846 71.0413 12.3879 72 9.7379H51.9971Z" fill="#4DB45E"/>
<path fill-rule="evenodd" clip-rule="evenodd" d="M66.1206 0.651855H52C52.7062 4.36123 55.5898 7.34392 59.3199 8.31282C60.1663 8.53367 61.0569 8.65479 61.9747 8.65479H72.8598C72.9557 8.21071 73 7.7595 73 7.2893C73 3.62268 69.922 0.651855 66.1206 0.651855Z" fill="url(#paint0_linear)"/>
<defs>
<linearGradient id="paint0_linear" x1="52.0061" y1="4.6532" x2="73.0065" y2="4.6532" gradientUnits="userSpaceOnUse">
<stop offset="0.3" stop-color="#00B4E6"/>
<stop offset="1" stop-color="#088CCB"/>
</linearGradient>
</defs>
</svg>
