<svg width="48" height="49" viewBox="0 0 48 49" fill="none" xmlns="http://www.w3.org/2000/svg">
<path d="M43.9876 37.7138H34.5238V24.6853L24.0002 35.2141L13.4765 24.6853V37.7138H4.0128H3.70996C7.94971 44.4553 15.445 49.0001 24.0002 49.0001C32.5554 49.0001 40.0507 44.531 44.2904 37.7138H43.9876Z" fill="#4C4C4C"/>
<path d="M8.4795 32.7141V12.7173L24 28.2451L39.5205 12.7173V32.7141H46.7129C47.5457 30.2902 48 27.7149 48 24.9881C48 11.7326 37.2492 0.976807 24 0.976807C10.7508 0.976807 0 11.7326 0 24.9881C0 27.7149 0.454259 30.2902 1.28707 32.7141H8.4795Z" fill="#FF6B01"/>
</svg>
