<svg width="98" height="18" viewBox="0 0 98 18" fill="none" xmlns="http://www.w3.org/2000/svg">
<path d="M91.674 8.15279C91.1171 8.54454 90.3092 8.73258 89.2032 8.73258H88.1051L88.9444 4.18829H89.7287C90.6308 4.18829 91.2975 4.34499 91.7681 4.6388C92.1211 4.87385 92.5525 5.34395 92.5525 6.22538C92.5525 7.28311 92.0427 7.85898 91.6191 8.15279H91.674ZM26.159 13.8528H17.6798L18.2289 10.8872H23.5627L24.1627 7.54167H18.9035L19.4133 4.60354H27.8846L26.1786 13.8488L26.159 13.8528ZM96.2548 2.018C94.9998 1.15615 93.1173 0.725222 90.6347 0.725222H84.144L81.7281 13.8097H73.2176L73.7667 10.8324H78.8651L79.4534 7.48682L74.3314 7.50249L74.8805 4.5487H80.1593L80.8653 0.709551H70.2017L67.9113 13.128H63.9659L66.2798 0.709551H60.6715L58.3851 13.128H54.5534L56.8673 0.709551H51.259L48.8392 13.794H40.2777L40.815 10.8167H45.9527L46.5645 7.49857H41.4268L41.9759 4.52128H47.3097L48.0038 0.682129H14.6286L12.7265 11.0635L8.94189 0.721305H3.12574L0 17.6919H5.54946L7.44373 7.03631L11.1185 17.6919H31.0025L33.4262 4.60746H36.5363L34.1165 17.6919H86.4344L87.9247 9.42598L90.3759 17.6919H95.9292L93.38 10.9421L93.9683 10.8167C95.2468 10.5425 96.243 9.95484 96.9411 9.06949C97.647 8.16846 98 7.03239 98 5.62209C98 4.01592 97.4117 2.84067 96.2077 2.018" fill="#83BA3B"/>
</svg>
