<svg width="71" height="34" viewBox="0 0 71 34" fill="none" xmlns="http://www.w3.org/2000/svg">
<path d="M35 19.6886H36.1068V22.0776H36.9065L38.3415 19.6886H39.5515L37.8292 22.4925V22.5121L39.6541 25.5719H38.4033L36.9269 23.0049H36.1278V25.5719H35.0204V19.688H35V19.6886ZM42.1348 21.2486C43.4665 21.2486 44.5536 22.1764 44.5536 23.4596C44.5536 24.763 43.4875 25.6713 42.1551 25.6713C40.8221 25.6713 39.7561 24.763 39.7561 23.4596C39.7357 22.1568 40.8017 21.2486 42.1348 21.2486ZM45.4144 21.3467H46.4601V24.6642H47.8339V21.3474H48.8789V24.6642H50.2527V21.3474H51.2984V25.5719H45.4552V21.3467H45.4144ZM54.3945 21.2486C55.6447 21.2486 56.3418 22.1371 56.3418 23.243C56.3384 23.3818 56.3247 23.5202 56.301 23.6572H53.2871C53.3489 24.3875 53.9434 24.7827 54.5997 24.7827C55.0502 24.7827 55.5013 24.5851 55.8499 24.3286L56.2806 25.0791C55.8295 25.4534 55.1528 25.6909 54.5175 25.6909C53.0615 25.6909 52.1598 24.6839 52.1598 23.4792C52.1598 22.1568 53.0819 21.2486 54.3945 21.2486ZM56.8541 24.6839C57.3875 24.6047 57.7768 24.1709 57.7768 22.6698V21.3474H60.9755V25.5719H59.8885V22.1954H58.8224V22.6692C58.8224 24.5053 58.3101 25.5719 56.8541 25.6111V24.6833V24.6839ZM64.0915 21.2486C65.3416 21.2486 66.0387 22.1371 66.0387 23.243C66.0353 23.3818 66.0217 23.5202 65.998 23.6572H62.984C63.0458 24.3875 63.6403 24.7827 64.2966 24.7827C64.7471 24.7827 65.1983 24.5851 65.5468 24.3286L65.9776 25.0791C65.5264 25.4534 64.8497 25.6909 64.2144 25.6909C62.7591 25.6909 61.8568 24.6839 61.8568 23.4792C61.8568 22.1568 62.7795 21.2486 64.0915 21.2486ZM66.941 21.3467H68.0275V22.9662H68.5608L69.6268 21.3474H70.8362L69.442 23.3608V23.3811L71 25.5719H69.7294L68.5812 23.8548H68.0077V25.5719H66.92V21.3467H66.9404H66.941ZM42.1348 24.763C42.8522 24.763 43.4467 24.2298 43.4467 23.44C43.4467 22.6698 42.8522 22.1169 42.1341 22.1169C41.4173 22.1169 40.8431 22.6508 40.8431 23.44C40.8431 24.2298 41.4166 24.763 42.1348 24.763ZM55.235 22.9269C55.235 22.374 54.845 22.0383 54.3531 22.0383C53.8 22.0383 53.3896 22.3937 53.2871 22.9269H55.235ZM64.9319 22.9269C64.9319 22.374 64.5426 22.0383 64.0507 22.0383C63.4963 22.0383 63.0866 22.3937 62.984 22.9269H64.9319Z" fill="#2D3540"/>
<path d="M50.442 5.54447V16.3228C50.4438 16.4025 50.4139 16.4795 50.3591 16.5359C50.3044 16.5922 50.2296 16.6231 50.1522 16.6213H48.0176C47.9402 16.6231 47.8654 16.5922 47.8106 16.5359C47.7559 16.4795 47.7259 16.4025 47.7277 16.3228V5.54447C47.7259 5.46475 47.7559 5.38775 47.8106 5.33137C47.8654 5.27498 47.9402 5.24412 48.0176 5.24595H50.1522C50.2296 5.24412 50.3044 5.27498 50.3591 5.33137C50.4139 5.38775 50.4438 5.46475 50.442 5.54447ZM67.1043 5.24595C67.1874 5.24595 67.2911 5.28841 67.3941 5.37398C67.4566 5.43766 67.4566 5.54447 67.436 5.63004L63.9126 16.4296C63.8689 16.5438 63.7626 16.6198 63.6434 16.6219H61.7368C61.6125 16.6219 61.5088 16.5576 61.4675 16.4296L59.4147 10.1336L57.3632 16.4289C57.3194 16.5432 57.2132 16.6191 57.0939 16.6213H55.1873C55.063 16.6213 54.9593 16.5576 54.9181 16.4289L51.3947 5.62938C51.3741 5.54447 51.3741 5.45889 51.4359 5.37398C51.4778 5.28841 51.5815 5.24595 51.6639 5.24595H54.0472C54.1715 5.24595 54.2752 5.33086 54.3171 5.45889L56.2024 11.8404L58.2752 5.45889C58.319 5.34461 58.4252 5.26869 58.5445 5.26652H60.2231C60.3474 5.26652 60.4511 5.33086 60.4923 5.45889L62.5651 11.8404L64.4511 5.45889C64.4858 5.3348 64.595 5.24847 64.7204 5.24595H67.1036H67.1043ZM70.7101 5.24595C70.855 5.24595 70.9793 5.37398 70.9999 5.54447V16.3228C71.0017 16.4025 70.9717 16.4795 70.917 16.5359C70.8622 16.5922 70.7875 16.6231 70.7101 16.6213H68.5754C68.498 16.6231 68.4233 16.5922 68.3685 16.5359C68.3138 16.4795 68.2838 16.4025 68.2856 16.3228V5.54447C68.2838 5.46475 68.3138 5.38775 68.3685 5.33137C68.4233 5.27498 68.498 5.24412 68.5754 5.24595H70.7101ZM46.4839 16.2379C46.6082 16.3871 46.5045 16.6 46.3177 16.6H43.7064C43.6022 16.6029 43.5026 16.5556 43.4372 16.472L43.0024 15.9174C42.0903 16.5145 41.0121 16.878 39.8726 16.878C36.6816 16.878 34.0909 14.21 34.0909 10.923C34.0909 7.63604 36.6816 4.968 39.8726 4.968C43.0642 4.968 45.6549 7.63604 45.6549 10.923C45.6549 12.0971 45.3232 13.207 44.7428 14.1456L46.4839 16.2372V16.2379ZM24.661 21.4665C25.2001 21.6801 25.4075 22.5119 25.4487 22.8748C25.5318 23.5368 25.3457 23.7929 25.1383 23.7929C24.9308 23.7929 24.6403 23.5368 24.3299 23.0247C24.0188 22.5119 23.8944 21.9361 24.0606 21.6369C24.1637 21.4446 24.3917 21.3597 24.6616 21.4665H24.661ZM21.5112 23.8784C21.8429 23.8784 22.2159 24.0277 22.5476 24.3262C23.1898 24.8814 23.3766 25.5216 23.0448 25.9913C22.858 26.2261 22.5476 26.3753 22.1952 26.3753C21.8429 26.3753 21.47 26.2473 21.2213 26.0125C20.641 25.5004 20.4754 24.646 20.8477 24.177C20.9933 23.9846 21.2213 23.8784 21.5112 23.8784ZM14.2583 30.0464C6.38263 30.0464 0 23.4725 0 15.3622C0 7.25196 6.38328 0.678711 14.2577 0.678711C22.1328 0.678711 28.516 7.25262 28.516 15.3622C28.516 18.1152 27.7701 20.6983 26.5064 22.8967C26.4645 22.9604 26.3608 22.9391 26.3402 22.8536C25.8429 19.2469 23.7083 17.2614 20.5997 16.6644C20.3299 16.6213 20.2886 16.4508 20.641 16.4083C21.5943 16.3228 22.9411 16.344 23.6458 16.472C23.687 16.1092 23.7083 15.7251 23.7083 15.341C23.7083 9.98368 19.4803 5.62938 14.2783 5.62938C9.077 5.62938 4.84897 9.98368 4.84897 15.341C4.84897 20.6983 9.07701 25.0526 14.279 25.0526H14.7137C14.566 24.1861 14.5034 23.3064 14.5269 22.427C14.5482 21.8293 14.6725 21.7437 14.9211 22.2134C16.2268 24.5398 18.0922 26.6314 21.7392 27.4639C24.7234 28.1472 27.7077 28.9366 30.9199 33.141C31.2098 33.5038 30.775 33.8879 30.4433 33.5894C27.1692 30.6009 24.1849 29.6192 21.47 29.6192C18.4233 29.6411 16.3511 30.0464 14.2577 30.0464H14.2583ZM41.3026 13.8471L40.1625 12.4169C40.0388 12.2676 40.1425 12.0328 40.3286 12.0328H42.7325C42.8568 11.6912 42.9193 11.3071 42.9193 10.923C42.9193 9.15182 41.6343 7.61482 39.8726 7.61482C38.1116 7.61482 36.8259 9.15182 36.8259 10.923C36.8259 12.6942 38.1116 14.21 39.8726 14.21C40.3699 14.2312 40.8678 14.0819 41.3026 13.8471Z" fill="#FF8C00"/>
</svg>
