<svg width="48" height="50" viewBox="0 0 48 50" fill="none" xmlns="http://www.w3.org/2000/svg">
<path d="M24 49.0153C37.2548 49.0153 48 38.2649 48 25.0036C48 11.7423 37.2548 0.991943 24 0.991943C10.7452 0.991943 0 11.7423 0 25.0036C0 38.2649 10.7452 49.0153 24 49.0153Z" fill="#1276A7"/>
<path d="M30.587 27.5795C29.8299 27.3523 29.0728 27.2765 28.3914 27.2765C27.71 27.3523 26.9529 27.0493 26.5743 26.4433L26.3472 26.1403C25.893 25.4586 25.893 24.6254 26.3472 23.9437L26.5743 23.5649C26.9529 23.0347 27.5586 22.7317 28.24 22.7317C29.0728 22.7317 29.9056 22.5802 30.7384 22.1257C32.7825 21.0653 34.1453 19.0201 34.0696 16.7477C33.9939 13.4906 31.2683 10.9152 27.9371 11.0667C25.1359 11.2182 22.7889 13.4906 22.486 16.2932C22.3346 17.8081 22.7889 19.1716 23.546 20.3078C24.0002 20.9895 24.0002 21.8985 23.546 22.5802L23.4702 22.656C23.0917 23.1862 22.486 23.4892 21.8803 23.4892H21.5018C20.7447 23.4892 20.0633 23.0347 19.7605 22.353C18.7762 20.3835 16.7321 19.0958 14.3851 19.1716C11.3567 19.2473 8.85826 21.747 8.78255 24.7769C8.63113 28.1097 11.281 30.8366 14.6122 30.8366C16.8835 30.8366 18.8519 29.5489 19.7605 27.6553C20.0633 26.9735 20.7447 26.5191 21.5018 26.5191H21.8046C22.486 26.5191 23.0917 26.822 23.3945 27.3523L23.7731 27.8825C24.2273 28.4885 24.1516 29.3217 23.7731 29.9277C23.0917 30.9881 22.7889 32.2001 22.9403 33.5635C23.1674 36.2904 25.4387 38.4871 28.0885 38.7901C31.7983 39.1688 34.8267 36.0632 34.5239 32.4273C34.3724 30.2307 32.7825 28.2612 30.587 27.5795Z" fill="#FEFEFE"/>
</svg>
