<svg width="63" height="23" viewBox="0 0 63 23" fill="none" xmlns="http://www.w3.org/2000/svg">
<path d="M45.2504 5.87449C46.6857 5.87449 47.8389 4.70819 47.8389 3.27782C47.8389 1.84195 46.6885 0.681152 45.2532 0.681152C43.8288 0.681152 42.6784 1.84195 42.6784 3.27782C42.6784 4.70819 43.8288 5.87449 45.2532 5.87449H45.2504ZM25.4493 7.27185C25.3397 7.56892 24.518 9.94829 22.4636 12.4157V1.85845L17.0675 2.93673V22.0706H22.4636V16.1566C24.0386 18.5222 24.8083 22.0706 24.8083 22.0706H31.2918C30.6618 19.3942 27.8624 14.4622 27.8624 14.4622C30.3824 11.2549 31.489 7.83849 31.6589 7.27185H25.4684H25.4493ZM39.7037 7.07379C34.8554 7.22783 32.3902 9.4119 32.3902 13.7525V22.0706H37.6767V15.2902C37.6767 12.688 38.0137 11.5767 41.087 11.4667V7.14806C40.5665 7.03804 39.6982 7.06554 39.6982 7.06554L39.7037 7.07379ZM7.99278 9.37614C7.32991 9.33212 5.80148 9.23035 5.80148 7.8495C5.80148 6.17156 8.02017 6.17156 8.84191 6.17156C10.2937 6.17156 12.1837 6.60067 13.534 7.00778C13.534 7.00778 14.2846 7.2746 14.92 7.54417L14.9858 7.55792V2.98074L14.8735 2.95874C13.2848 2.40034 11.4386 1.85845 8.00922 1.85845C2.09817 1.85845 0 5.32435 0 8.28686C0 9.9923 0.728609 14.0083 7.49974 14.4759C8.07496 14.509 9.59517 14.5997 9.59517 16.0328C9.59517 17.2157 8.35161 17.9198 6.25891 17.9198C3.95804 17.9198 1.72291 17.3147 0.369783 16.7645V21.4958C2.39674 22.0184 4.68391 22.2935 7.36004 22.2935C13.1451 22.2935 15.7281 19.0201 15.7281 15.7743C15.7281 12.0883 12.8383 9.69522 7.97087 9.36513L7.99278 9.37614ZM42.6291 22.0541H47.8773V7.28285H42.6181V22.0596L42.6291 22.0541ZM57.7381 2.7937V22.0624H63V1.85845L57.7491 2.8047L57.7381 2.7937ZM50.096 2.8047L55.3304 1.85845V22.0706H50.0987V2.8047" fill="#6B195F"/>
</svg>
