<svg width="66" height="22" viewBox="0 0 66 22" fill="none" xmlns="http://www.w3.org/2000/svg">
<g clip-path="url(#clip0)">
<path d="M28.6243 21.1194H23.3047L26.6319 0.375977H31.9512L28.6243 21.1194Z" fill="#00579F"/>
<path d="M47.9085 0.88313C46.8592 0.463416 45.195 0 43.1372 0C37.884 0 34.1847 2.82449 34.162 6.86266C34.1183 9.84201 36.8106 11.4968 38.8241 12.4902C40.8822 13.5053 41.5818 14.1679 41.5818 15.0727C41.5609 16.4624 39.9188 17.103 38.3872 17.103C36.2634 17.103 35.1254 16.7727 33.396 15.9996L32.6956 15.6681L31.9512 20.3246C33.1988 20.8977 35.4975 21.4063 37.884 21.4286C43.4657 21.4286 47.0995 18.6478 47.1426 14.3445C47.1638 11.9831 45.7422 10.1737 42.6773 8.69521C40.8168 7.74608 39.6773 7.1061 39.6773 6.13498C39.6992 5.25214 40.6411 4.3479 42.7413 4.3479C44.4707 4.30361 45.7413 4.72273 46.7039 5.14215L47.185 5.36242L47.9085 0.88313Z" fill="#00579F"/>
<path d="M54.9783 13.7707C55.4164 12.5791 57.1021 7.9669 57.1021 7.9669C57.08 8.01119 57.5394 6.75322 57.802 5.98096L58.1738 7.76834C58.1738 7.76834 59.1812 12.7336 59.3999 13.7707C58.5685 13.7707 56.029 13.7707 54.9783 13.7707ZM61.5447 0.375977H57.43C56.1611 0.375977 55.1971 0.750815 54.6496 2.09707L46.748 21.1191H52.3297C52.3297 21.1191 53.2487 18.5589 53.4462 18.0075C54.0585 18.0075 59.4883 18.0075 60.2761 18.0075C60.4288 18.7357 60.9108 21.1191 60.9108 21.1191H65.8362L61.5447 0.375977Z" fill="#00579F"/>
<path d="M18.8616 0.375977L13.652 14.521L13.0827 11.6522C12.1196 8.34204 9.09891 4.74558 5.72803 2.95732L10.4999 21.0974H16.1252L24.4866 0.375977H18.8616Z" fill="#00579F"/>
<path d="M8.81422 0.375977H0.255528L0.167969 0.795104C6.84429 2.51649 11.2659 6.66582 13.0825 11.6531L11.222 2.11965C10.9156 0.794811 9.97431 0.419678 8.81422 0.375977Z" fill="#FAA61A"/>
</g>
<defs>
<clipPath id="clip0">
<rect width="66" height="21.4286" fill="white"/>
</clipPath>
</defs>
</svg>
