<svg width="134" height="32" viewBox="0 0 134 32" fill="none" xmlns="http://www.w3.org/2000/svg">
<path d="M118.329 0.650387C120.763 0.650387 123.079 1.21297 125.156 2.2194C125.482 2.36729 125.81 2.54534 126.135 2.72357L124.711 3.99862L122.574 1.77556L118.895 5.03425L116.727 2.69436L109.96 8.76794L114.293 13.5373L112.601 15.0167L116.876 19.7861L115.184 21.2674L121.3 28.0516L124.919 24.7325L128.066 28.2891C127.443 28.7631 126.76 29.2381 126.019 29.6517C123.763 30.9268 121.15 31.6646 118.36 31.6646C109.782 31.6646 102.807 24.7052 102.807 16.1439C102.778 7.64181 109.753 0.648438 118.33 0.648438L118.329 0.650387ZM115.479 15.1949L119.191 11.8758L122.515 15.5803L118.803 18.8974L115.479 15.1939V15.1949ZM118.121 21.5945L121.803 18.2462L125.156 21.9498L121.445 25.2688L118.121 21.5945H118.121ZM112.84 8.88474L116.548 5.56763L119.874 9.27019L116.163 12.5892L112.84 8.88474ZM119.636 7.10843L122.395 4.61962L124.889 7.37414L122.127 9.89216L119.634 7.10843H119.636ZM124.562 18.5129L127.321 16.0251L129.815 18.8088L127.054 21.2986L124.561 18.5129H124.562ZM126.995 24.1125L129.756 21.6237L132.248 24.3782L129.488 26.8962L126.995 24.1125ZM128.123 11.3132L129.965 9.65561L131.626 11.4923L129.786 13.1508L128.122 11.3132H128.123ZM125.749 5.83334L127.59 4.14562L129.253 6.01246L127.412 7.67197L125.75 5.83434L125.749 5.83334ZM130.47 16.796L132.309 15.1364L134 16.9731L132.13 18.6317L130.469 16.796H130.47ZM122.189 12.6768L124.949 10.189L127.442 12.9435L124.683 15.4324L122.189 12.6778V12.6768ZM8.14121 11.3336H8.00144L5.37253 21.4134H3.22468L0 7.09382H2.2298L4.45864 17.7781H4.59746L7.18395 7.09382H8.95583L11.7226 17.7781H11.8633L13.8936 7.09382H16.2227L12.997 21.4134H10.8473L8.14121 11.3336ZM19.0511 15.3165H23.6081C23.5088 13.1966 22.4927 12.3479 21.4178 12.3479C20.2032 12.3479 19.2681 13.2988 19.0502 15.3165H19.0511ZM25.2007 19.1144V20.6504C24.3041 21.1759 23.1107 21.5799 21.6762 21.5799C18.331 21.5799 16.9602 19.4785 16.9602 16.2879C16.9602 13.217 18.493 10.9959 21.4776 10.9959C23.9648 10.9959 25.4976 12.6311 25.4976 15.9229V16.6704H19.0097C19.0097 19.094 19.9833 20.1647 22.0348 20.1647C23.1107 20.1647 24.1055 19.7792 25.1997 19.1135L25.2007 19.1144ZM30.1297 19.9612C30.766 20.2434 31.464 20.2842 31.9614 20.2842C33.4364 20.2842 34.5479 19.3547 34.5479 16.0824C34.5479 13.5177 33.6321 12.6903 32.2998 12.6903C31.5035 12.6903 30.926 12.9121 30.1307 13.3561V19.9601L30.1297 19.9612ZM30.1491 11.8631C30.7468 11.5402 31.7609 11.1137 32.8368 11.1137C35.3047 11.1137 36.6389 12.8511 36.6389 16.0825C36.6389 19.859 34.8458 21.6986 31.9614 21.6986C30.9058 21.6986 29.2737 21.3539 28.0793 20.7058V6.61301L30.15 6.10686V11.8631H30.1491ZM45.5986 18.3747H45.6969L49.9551 7.08407H52.423V21.4047H50.2732V11.0231H50.0948L46.0343 21.4047H44.7618L40.7013 11.2665H40.521V21.4047H38.7299V7.08407H41.14L45.5986 18.3747ZM61.2062 16.2879C61.2062 13.5626 60.113 12.4111 58.7605 12.4111C57.4475 12.4111 56.3118 13.5616 56.3118 16.2879C56.3118 19.0551 57.3472 20.1647 58.7605 20.1647C60.1728 20.1647 61.2072 19.0551 61.2072 16.2869L61.2062 16.2879ZM54.2238 16.2869C54.2238 12.7518 56.1345 10.9949 58.7614 10.9949C61.3904 10.9949 63.3001 12.7508 63.3001 16.2859C63.3001 19.7383 61.4896 21.5779 58.7624 21.5779C56.0342 21.5779 54.2247 19.7383 54.2247 16.2859L54.2238 16.2869ZM64.8734 12.4909C65.7699 11.9459 67.6614 10.9959 69.948 10.9959C72.3369 10.9959 73.2315 11.9439 73.2315 14.023V21.3366H71.1627V14.4911C71.1627 12.8949 70.3886 12.6126 69.3715 12.6126C68.5762 12.6126 67.5592 12.9768 66.9422 13.3397V21.3375H64.8734V12.49V12.4909ZM77.614 15.3165H82.17C82.0736 13.1966 81.0565 12.3479 79.9817 12.3479C78.767 12.3479 77.8319 13.2988 77.613 15.3165H77.614ZM83.7616 19.1144V20.6504C82.867 21.1759 81.6726 21.5799 80.2381 21.5799C76.8977 21.5799 75.524 19.4785 75.524 16.2879C75.524 13.217 77.0549 10.9959 80.0405 10.9959C82.5276 10.9959 84.0624 12.6311 84.0624 15.9229V16.6704H77.5745C77.5745 19.094 78.5481 20.1647 80.5977 20.1647C81.6726 20.1647 82.6703 19.7792 83.7616 19.1135V19.1144ZM92.3308 10.9969H94.4614L90.8578 21.0903C89.862 23.8779 88.6502 25.3321 86.3606 25.3321V23.6794C87.7141 23.6794 88.549 22.5892 89.0281 21.0923L85.2067 10.9969H87.395L89.9439 18.4273H90.0635L92.3309 10.9959L92.3308 10.9969Z" fill="#006CB4"/>
</svg>
