<svg width="113" height="23" viewBox="0 0 113 23" fill="none" xmlns="http://www.w3.org/2000/svg">
<path d="M7.08723 2.30688H6.03002C5.63566 2.30688 5.2497 2.37852 4.86932 2.5218C4.49175 2.66784 4.15613 2.89655 3.86525 3.21067C3.57158 3.52479 3.33665 3.94087 3.15765 4.4589C2.97585 4.97692 2.88635 5.61895 2.88635 6.38221C2.88635 7.11241 2.96746 7.72412 3.12968 8.21735C3.2947 8.71058 3.51844 9.11012 3.80093 9.41322C4.08341 9.71908 4.41903 9.93676 4.805 10.0635C5.19376 10.1903 5.6021 10.2536 6.03002 10.2536H7.08723V2.30688ZM5.43709 11.8794L2.29342 18.8369H0L3.45412 11.3972C2.64582 10.9921 1.99136 10.3942 1.49352 9.6061C0.99568 8.8208 0.746761 7.74892 0.746761 6.39599C0.746761 5.44535 0.8894 4.6132 1.17188 3.89403C1.45436 3.17485 1.84313 2.57691 2.33258 2.10297C2.82203 1.62903 3.39259 1.27358 4.04705 1.03661C4.69872 0.799638 5.38674 0.681152 6.10833 0.681152H9.073V18.8369H7.08723V11.8794H5.43709Z" fill="#FF0000"/>
<path d="M51.7473 18.9461C50.3629 18.9461 49.2786 18.3939 48.4947 17.2868C47.7079 16.1824 47.3159 14.5175 47.3159 12.2892C47.3159 11.2769 47.4132 10.3622 47.6106 9.53945C47.8052 8.71675 48.0971 8.01955 48.4808 7.44505C48.8644 6.87056 49.3426 6.42435 49.9153 6.10642C50.488 5.79129 51.1496 5.63232 51.9002 5.63232C52.4813 5.63232 52.9511 5.69646 53.3097 5.82475C53.6683 5.95304 53.9936 6.112 54.2855 6.30164L54.0019 8.20361C53.7295 7.95541 53.407 7.74067 53.0428 7.55382C52.6731 7.36976 52.2867 7.27772 51.8752 7.27772C51.158 7.27772 50.5686 7.6821 50.1071 8.49086C49.6456 9.3024 49.4149 10.5323 49.4149 12.186C49.4149 13.8231 49.6095 15.0836 49.9931 15.9705C50.3768 16.8573 50.98 17.3007 51.8002 17.3007C52.295 17.3007 52.7203 17.2171 53.079 17.0497C53.4376 16.8824 53.7378 16.69 53.9769 16.478L54.4384 17.97C54.0965 18.2601 53.71 18.4971 53.2847 18.6756C52.8593 18.8569 52.345 18.9461 51.7473 18.9461ZM41.4751 12.3143V18.7648H39.4762V5.8136H41.4751V11.8012L44.5748 5.8136H46.5987L43.3961 11.9044L47.0602 18.7648H44.8806L41.4751 12.3143ZM33.8633 7.27772C33.2489 7.27772 32.8152 7.62354 32.5567 8.31795C32.3009 9.01237 32.1397 9.94104 32.0702 11.1068H35.3756C35.3756 10.5574 35.3506 10.0498 35.2978 9.5785C35.2478 9.10719 35.1671 8.70002 35.0559 8.357C34.9447 8.01397 34.789 7.74903 34.5944 7.55939C34.3971 7.37254 34.1552 7.27772 33.8633 7.27772ZM37.4523 17.8919C37.0409 18.2182 36.5711 18.4748 36.0428 18.6645C35.5119 18.8513 34.9225 18.9461 34.2747 18.9461C32.9431 18.9461 31.8922 18.4274 31.1222 17.39C30.3549 16.3553 29.9712 14.8326 29.9712 12.8275C29.9712 11.7844 30.0407 10.8251 30.1881 9.94941C30.3326 9.07651 30.5634 8.31795 30.8803 7.67653C31.1944 7.03231 31.6003 6.53311 32.0952 6.17335C32.59 5.8136 33.1822 5.63232 33.8633 5.63232C34.3943 5.63232 34.8808 5.7383 35.3256 5.95304C35.7676 6.16778 36.1457 6.51359 36.4515 6.99327C36.7601 7.47294 36.9992 8.09485 37.1688 8.85898C37.3383 9.62033 37.4245 10.549 37.4245 11.6478V12.7522H32.0451C32.0451 14.2247 32.2453 15.3402 32.6484 16.0932C33.0487 16.8461 33.6492 17.2226 34.4527 17.2226C35.017 17.2226 35.5174 17.125 35.9511 16.927C36.3876 16.7318 36.7351 16.5394 36.9908 16.3497L37.4523 17.8919ZM25.7678 7.45621H23.5382V7.68768C23.5382 8.37094 23.5271 9.11834 23.5021 9.92989C23.4743 10.7414 23.4187 11.5669 23.3353 12.4036C23.2491 13.243 23.1295 14.0657 22.9766 14.8772C22.8209 15.6916 22.6069 16.439 22.3344 17.1222H25.7678V7.45621ZM28.7647 21.311H26.9716V18.7648H21.4393V21.311H19.6461V17.1222H20.4384C20.7303 16.4362 20.9611 15.6776 21.1307 14.8466C21.3003 14.0155 21.4337 13.1593 21.5282 12.2753C21.62 11.394 21.6811 10.4932 21.7061 9.5785C21.7339 8.66098 21.7451 7.77413 21.7451 6.91797V5.8136H27.7416V17.1222H28.7647V21.311ZM18.4924 5.8136V18.7648H16.5186V12.9585H13.5467V18.7648H11.5479V5.8136H13.5467V11.3131H16.5186V5.8136H18.4924Z" fill="black"/>
<path d="M66.8246 1.71131H62.9685C62.9361 4.06757 62.8849 6.13626 62.8201 7.91741C62.7526 9.69856 62.6717 11.2592 62.5718 12.602C62.4558 13.9951 62.2939 15.1453 62.0861 16.047C61.8783 16.9516 61.6085 17.6188 61.2766 18.0487H66.8246V1.71131ZM68.1414 19.0761H60.5318L60.3591 22.1387H59.3877V18.0487H59.9112C60.3402 17.6691 60.6721 16.999 60.9042 16.0387C61.1363 15.0755 61.3198 13.9337 61.452 12.6104C61.5842 11.2368 61.676 9.5478 61.7245 7.5489C61.7758 5.5472 61.8163 3.25795 61.8487 0.681152H68.0658V18.0487H69.2855V22.1387H68.3168L68.1414 19.0761Z" fill="black"/>
<path d="M74.8781 6.70405C74.1621 6.70405 73.5481 7.14262 73.0388 8.02266C72.5294 8.89979 72.2471 10.1835 72.1947 11.871H77.1016C77.2093 10.0761 77.0347 8.76909 76.5806 7.94424C76.1237 7.11648 75.5562 6.70405 74.8781 6.70405ZM72.1686 12.8614C72.2035 14.726 72.4625 16.1463 72.9456 17.1222C73.4287 18.101 74.1621 18.5889 75.1458 18.5889C75.5911 18.5889 75.984 18.5163 76.3245 18.3711C76.665 18.2259 76.9503 18.0516 77.1831 17.8512C77.4508 17.6537 77.6837 17.4068 77.8816 17.1164L78.2832 18.1329C78.0678 18.4379 77.8088 18.6964 77.5061 18.9113C77.2384 19.1059 76.9066 19.2802 76.5137 19.4312C76.1208 19.5822 75.6552 19.6606 75.1167 19.6606C73.6878 19.6606 72.6313 19.0449 71.9532 17.8134C71.2751 16.582 70.9346 14.8596 70.9346 12.6465C70.9346 11.5399 71.0306 10.5553 71.2285 9.68979C71.4264 8.82428 71.6971 8.08655 72.0463 7.47953C72.3956 6.87541 72.8117 6.41361 73.2949 6.10284C73.778 5.78916 74.3047 5.63232 74.8781 5.63232C75.466 5.63232 75.9957 5.78626 76.4584 6.08832C76.9241 6.39328 77.3082 6.84637 77.6138 7.45339C77.9165 8.06041 78.1319 8.81556 78.257 9.71593C78.3822 10.6163 78.3909 11.6648 78.2832 12.8614H72.1686Z" fill="black"/>
<path d="M86.1172 12.9159H81.3187V18.8359H80.0078V6.45752H81.3187V11.935H86.1172V6.45752H87.4312V18.8359H86.1172V12.9159Z" fill="black"/>
<path d="M91.1894 11.9605V17.9272H92.0057C92.9699 17.9272 93.7507 17.6954 94.3512 17.229C94.9486 16.7627 95.2503 15.9978 95.2503 14.9319C95.2503 13.8846 94.9782 13.1277 94.431 12.6614C93.8868 12.1924 93.1237 11.9605 92.1418 11.9605H91.1894ZM89.9058 6.45752H91.1894V11.0518H92.198C93.5052 11.0518 94.5493 11.3716 95.3301 12.0085C96.1139 12.6481 96.5043 13.6128 96.5043 14.9079C96.5043 16.2163 96.0932 17.1997 95.2769 17.8553C94.4576 18.5082 93.4047 18.8359 92.1151 18.8359H89.9058V6.45752Z" fill="black"/>
<path d="M99.4004 7.44086V18.8359H98.1533V6.45752H103.927V7.44086H99.4004Z" fill="black"/>
<path d="M111.784 10.2177C111.784 9.8899 111.793 9.58877 111.811 9.31961C111.831 9.05046 111.858 8.78397 111.893 8.52281H111.811C111.723 8.79996 111.614 9.06645 111.488 9.31961C111.362 9.57544 111.228 9.83927 111.084 10.1191L106.655 18.8359H105.577V6.45752H106.763V15.0545C106.763 15.3822 106.754 15.686 106.737 15.9632C106.719 16.243 106.693 16.5201 106.655 16.7973H106.737C106.828 16.5201 106.933 16.2457 107.059 15.9765C107.185 15.7047 107.32 15.4329 107.466 15.1531L111.893 6.45752H113V18.8359H111.784V10.2177Z" fill="black"/>
</svg>
